<?xml version="1.0" encoding="utf-8"?>
<!-- Generator: Adobe Illustrator 27.5.0, SVG Export Plug-In . SVG Version: 6.00 Build 0)  -->
<svg version="1.1" xmlns="http://www.w3.org/2000/svg" xmlns:xlink="http://www.w3.org/1999/xlink" x="0px" y="0px"
	 viewBox="0 0 500 500" style="enable-background:new 0 0 500 500;" xml:space="preserve">
<g id="Background_Simple">
	<g>
		<path style="fill:#C6FF00;" d="M356.394,130.861c0,0-40.261-44.112-104.009-41.978s-118.1,44.824-163.059,78.264
			c-44.959,33.44-57.037,85.379-30.867,125.934s67.773,23.479,120.784,49.804c53.011,26.325,63.076,41.267,122.126,34.863
			c59.05-6.403,104.009-71.861,97.298-141.587C391.958,166.435,356.394,130.861,356.394,130.861z"/>
		<path style="opacity:0.7;fill:#FFFFFF;" d="M356.394,130.861c0,0-40.261-44.112-104.009-41.978s-118.1,44.824-163.059,78.264
			c-44.959,33.44-57.037,85.379-30.867,125.934s67.773,23.479,120.784,49.804c53.011,26.325,63.076,41.267,122.126,34.863
			c59.05-6.403,104.009-71.861,97.298-141.587C391.958,166.435,356.394,130.861,356.394,130.861z"/>
	</g>
</g>
<g id="Ground">
	<g>
		<ellipse style="fill:#C6FF00;" cx="257.624" cy="392.443" rx="198.517" ry="10.828"/>
		<ellipse style="opacity:0.3;fill:#FFFFFF;" cx="257.624" cy="392.443" rx="198.517" ry="10.828"/>
	</g>
</g>
<g id="Plants">
	<g>
		<g>
			<g>
				<path style="fill:#C6FF00;" d="M374.938,229.202c-0.057,0.006,0.697-3.728,0.771-3.958c0.864-2.663,4.098-7.303,7.233-7.297
					c2.259,0.004,3.789,2.06,3.566,4.216c-0.227,2.202-2.205,4.079-3.994,5.163C380.414,228.597,374.942,229.202,374.938,229.202z"
					/>
				<path style="fill:#C6FF00;" d="M368.867,204.086c2.951,1.059,4.419,6.52,4.327,9.319c-0.008,0.242-0.567,4.01-0.619,3.985
					c0,0-0.048-0.024-0.06-0.03c0.238,0.86,0.484,1.786,0.732,2.802c0.443,1.88,0.927,4.009,1.296,6.361
					c0.376,2.349,0.718,4.913,0.834,7.645c0.121,2.739,0.108,5.626-0.29,8.599c-0.004,0.033-0.013,0.068-0.018,0.102
					c0.387-0.833,1.545-3.128,1.654-3.294c1.536-2.341,5.88-5.962,8.903-5.128c2.178,0.601,3.111,2.988,2.327,5.008
					c-0.801,2.064-3.204,3.352-5.215,3.924c-2.268,0.646-7.325-0.117-7.728-0.179c-0.405,2.828-1.051,5.697-1.863,8.564
					c-0.463,1.64-0.98,3.277-1.52,4.912c0.357-0.71,0.682-1.342,0.737-1.425c1.536-2.341,5.88-5.961,8.903-5.128
					c2.178,0.6,3.11,2.987,2.327,5.008c-0.8,2.064-3.204,3.352-5.216,3.925c-2.041,0.581-6.365,0.017-7.508-0.147
					c-0.214,0.625-0.42,1.252-0.636,1.876c-1.035,2.995-2.082,5.98-3.018,8.939c-0.331,1.042-0.618,2.081-0.909,3.12
					c0.318-0.63,0.591-1.158,0.641-1.234c1.536-2.341,5.88-5.962,8.904-5.128c2.178,0.6,3.111,2.988,2.327,5.009
					c-0.8,2.063-3.204,3.352-5.216,3.924c-1.948,0.554-5.944,0.07-7.303-0.119c-0.266,1.072-0.534,2.146-0.744,3.197
					c-0.127,0.721-0.299,1.406-0.386,2.137c-0.101,0.722-0.202,1.437-0.301,2.145c-0.141,1.371-0.296,2.784-0.401,4.124
					c-0.08,0.932-0.138,1.821-0.2,2.717c0.317-1.042,0.98-3.068,1.055-3.231c0.773-1.692,2.688-4.124,4.799-5.463
					c0.113-0.25,0.247-0.49,0.405-0.716c1.243-1.775,3.746-2.327,5.456-0.851c2.374,2.049,1.781,7.673,0.689,10.251
					c-0.064,0.152-0.948,1.724-1.521,2.707c0.425-0.527,0.831-1.043,1.276-1.579c0.871-1.067,1.771-2.106,2.736-3.228
					c0.485-0.525,0.975-1.055,1.47-1.591c0.479-0.542,1.054-1.053,1.584-1.588c1.255-1.212,2.585-2.38,3.951-3.527
					c-0.932-0.765-4.205-3.529-5.146-5.408c-0.937-1.87-1.611-4.512-0.63-6.496c0.96-1.943,3.35-2.868,5.264-1.668
					c2.657,1.665,2.923,7.315,2.234,10.029c-0.043,0.169-0.756,2.061-1.167,3.093c0.827-0.683,1.648-1.369,2.507-2.032
					c2.479-1.916,5.047-3.779,7.601-5.648c0.783-0.572,1.555-1.152,2.332-1.729c-0.335-0.269-4.295-3.47-5.349-5.574
					c-0.937-1.869-1.611-4.512-0.63-6.496c0.96-1.943,3.35-2.868,5.264-1.668c2.657,1.666,2.923,7.315,2.234,10.029
					c-0.052,0.205-1.082,2.925-1.377,3.605c1.708-1.272,3.399-2.555,5.015-3.888c2.232-1.836,4.32-3.76,6.205-5.775
					c-0.156-0.125-4.305-3.447-5.385-5.602c-0.937-1.87-1.611-4.512-0.63-6.497c0.96-1.943,3.35-2.868,5.264-1.668
					c2.657,1.666,2.922,7.315,2.234,10.029c-0.045,0.178-0.828,2.254-1.223,3.231c0.083,0.052,0.068,0.043,0.151,0.095
					c1.994-2.182,3.65-4.547,5.091-6.837c0.837-1.325,1.564-2.638,2.241-3.931c-0.836-0.539-4.63-3.048-5.816-4.88
					c-1.136-1.755-2.096-4.308-1.34-6.388c0.741-2.037,3.015-3.219,5.049-2.236c2.824,1.364,3.708,6.949,3.322,9.723
					c-0.021,0.151-0.404,1.66-0.698,2.756c0.297-0.588,0.614-1.19,0.887-1.76c1.032-2.135,1.844-4.154,2.55-5.947
					c0.393-1.023,0.728-1.956,1.032-2.832c-0.544-0.958-2.689-4.844-2.894-6.977c-0.2-2.082,0.125-4.789,1.755-6.287
					c1.597-1.466,4.159-1.467,5.512,0.342c1.877,2.512,0.088,7.876-1.532,10.16c-0.14,0.197-2.685,3.032-2.714,2.982
					c0,0-0.027-0.046-0.033-0.058c-0.276,0.849-0.582,1.756-0.935,2.74c-0.668,1.813-1.439,3.855-2.428,6.021
					c-0.983,2.167-2.111,4.494-3.522,6.837c-1.41,2.351-3.014,4.752-4.986,7.012c-0.022,0.026-0.049,0.049-0.071,0.075
					c0.782-0.482,3.014-1.756,3.196-1.834c2.573-1.105,8.193-1.728,10.255,0.634c1.485,1.702,0.946,4.208-0.822,5.461
					c-1.806,1.28-4.521,1.028-6.515,0.396c-2.248-0.713-6.046-4.139-6.347-4.413c-1.898,2.135-4.019,4.172-6.279,6.115
					c-1.291,1.113-2.626,2.193-3.978,3.259c0.69-0.395,1.309-0.743,1.401-0.782c2.573-1.105,8.194-1.728,10.255,0.635
					c1.485,1.702,0.946,4.208-0.822,5.461c-1.806,1.28-4.522,1.028-6.515,0.396c-2.023-0.642-5.319-3.497-6.181-4.265
					c-0.523,0.404-1.04,0.812-1.565,1.214c-2.516,1.927-5.036,3.839-7.449,5.79c-0.851,0.687-1.664,1.395-2.48,2.101
					c0.613-0.35,1.132-0.64,1.216-0.676c2.573-1.105,8.194-1.728,10.255,0.634c1.485,1.702,0.946,4.208-0.823,5.461
					c-1.806,1.279-4.521,1.028-6.515,0.396c-1.93-0.612-4.996-3.221-6.025-4.128c-0.813,0.748-1.63,1.495-2.384,2.256
					c-0.503,0.532-1.025,1.008-1.501,1.57c-0.483,0.546-0.961,1.087-1.435,1.623c-0.874,1.065-1.783,2.159-2.609,3.219
					c-0.581,0.733-1.12,1.442-1.666,2.155c0.839-0.694,2.51-2.018,2.662-2.113c2.375-1.482,7.837-2.95,10.233-0.926
					c1.726,1.458,1.573,4.016,0.014,5.522c-1.592,1.539-4.313,1.701-6.38,1.379c-2.275-0.356-6.393-3.038-6.905-3.376
					c-0.899,1.183-1.762,2.342-2.559,3.449c-2.772,3.831-4.934,7.126-6.413,9.45c-0.053,0.083-0.099,0.157-0.15,0.237l-1.919-0.931
					c0.099-0.15,0.195-0.296,0.302-0.456c1.548-2.319,3.803-5.598,6.686-9.405c0.908-1.205,1.902-2.474,2.935-3.768
					c-0.266-0.291-1.769-1.955-2.977-3.686c-2.203,0.863-6.79,0.897-7.383,0.898c-0.097,1.483-0.177,2.925-0.231,4.288
					c-0.198,4.724-0.184,8.666-0.136,11.42c0.002,0.113,0.004,0.213,0.007,0.322l-2.109-1.023c0.021-2.737,0.104-6.439,0.383-10.815
					c0.092-1.506,0.221-3.113,0.369-4.762c-0.585-0.147-5.355-1.372-7.156-2.811c-1.634-1.305-3.353-3.422-3.294-5.635
					c0.058-2.167,1.841-4.008,4.081-3.72c3.11,0.399,5.718,5.418,6.23,8.17c0.03,0.162,0.161,1.961,0.225,3.097
					c0.064-0.673,0.119-1.328,0.193-2.021c0.138-1.37,0.316-2.734,0.502-4.202c0.115-0.705,0.23-1.418,0.348-2.138
					c0.101-0.716,0.298-1.46,0.445-2.198c0.378-1.703,0.843-3.411,1.35-5.122c-1.2-0.124-5.454-0.624-7.275-1.671
					c-1.813-1.043-3.833-2.875-4.109-5.071c-0.271-2.15,1.212-4.24,3.471-4.296c3.135-0.076,6.473,4.489,7.396,7.132
					c0.058,0.165,0.507,2.136,0.733,3.224c0.313-1.026,0.619-2.051,0.97-3.078c1.01-2.965,2.125-5.936,3.224-8.904
					c0.337-0.909,0.662-1.819,0.991-2.728c-0.427-0.039-5.497-0.525-7.536-1.698c-1.813-1.042-3.833-2.875-4.109-5.071
					c-0.271-2.15,1.212-4.241,3.471-4.295c3.135-0.076,6.473,4.489,7.396,7.132c0.069,0.199,0.712,3.036,0.84,3.766
					c0.723-2.003,1.426-4.006,2.038-6.009c0.849-2.762,1.528-5.52,1.99-8.239c-0.199-0.018-5.492-0.5-7.582-1.702
					c-1.813-1.043-3.833-2.875-4.109-5.071c-0.271-2.15,1.212-4.24,3.471-4.295c3.135-0.076,6.473,4.489,7.396,7.132
					c0.061,0.173,0.552,2.334,0.762,3.368c0.099-0.003,0.081-0.002,0.179-0.005c0.459-2.919,0.535-5.805,0.474-8.51
					c-0.032-1.567-0.151-3.063-0.299-4.515c-0.995,0.011-5.543,0.012-7.543-0.862c-1.916-0.837-4.125-2.436-4.642-4.589
					c-0.505-2.108,0.739-4.348,2.978-4.651c3.107-0.42,6.926,3.751,8.134,6.277c0.066,0.137,0.579,1.608,0.938,2.684
					c-0.077-0.654-0.144-1.331-0.23-1.957c-0.318-2.35-0.753-4.482-1.154-6.367c-0.237-1.07-0.472-2.033-0.702-2.932
					c-0.982-0.499-4.915-2.557-6.263-4.223c-1.315-1.626-2.538-4.063-2.004-6.212C364.603,204.738,366.74,203.323,368.867,204.086z"
					/>
				<path style="fill:#C6FF00;" d="M425.551,252.419c-2.453-0.098-7.351-2.613-7.355-2.614c-0.051-0.026,2.637-2.725,2.826-2.876
					c2.19-1.745,7.446-3.83,10.059-2.096c1.882,1.25,2.024,3.809,0.649,5.484C430.326,252.028,427.641,252.502,425.551,252.419z"/>
			</g>
			<g style="opacity:0.5;">
				<path style="fill:#FFFFFF;" d="M374.938,229.202c-0.057,0.006,0.697-3.728,0.771-3.958c0.864-2.663,4.098-7.303,7.233-7.297
					c2.259,0.004,3.789,2.06,3.566,4.216c-0.227,2.202-2.205,4.079-3.994,5.163C380.414,228.597,374.942,229.202,374.938,229.202z"
					/>
				<path style="fill:#FFFFFF;" d="M368.867,204.086c2.951,1.059,4.419,6.52,4.327,9.319c-0.008,0.242-0.567,4.01-0.619,3.985
					c0,0-0.048-0.024-0.06-0.03c0.238,0.86,0.484,1.786,0.732,2.802c0.443,1.88,0.927,4.009,1.296,6.361
					c0.376,2.349,0.718,4.913,0.834,7.645c0.121,2.739,0.108,5.626-0.29,8.599c-0.004,0.033-0.013,0.068-0.018,0.102
					c0.387-0.833,1.545-3.128,1.654-3.294c1.536-2.341,5.88-5.962,8.903-5.128c2.178,0.601,3.111,2.988,2.327,5.008
					c-0.801,2.064-3.204,3.352-5.215,3.924c-2.268,0.646-7.325-0.117-7.728-0.179c-0.405,2.828-1.051,5.697-1.863,8.564
					c-0.463,1.64-0.98,3.277-1.52,4.912c0.357-0.71,0.682-1.342,0.737-1.425c1.536-2.341,5.88-5.961,8.903-5.128
					c2.178,0.6,3.11,2.987,2.327,5.008c-0.8,2.064-3.204,3.352-5.216,3.925c-2.041,0.581-6.365,0.017-7.508-0.147
					c-0.214,0.625-0.42,1.252-0.636,1.876c-1.035,2.995-2.082,5.98-3.018,8.939c-0.331,1.042-0.618,2.081-0.909,3.12
					c0.318-0.63,0.591-1.158,0.641-1.234c1.536-2.341,5.88-5.962,8.904-5.128c2.178,0.6,3.111,2.988,2.327,5.009
					c-0.8,2.063-3.204,3.352-5.216,3.924c-1.948,0.554-5.944,0.07-7.303-0.119c-0.266,1.072-0.534,2.146-0.744,3.197
					c-0.127,0.721-0.299,1.406-0.386,2.137c-0.101,0.722-0.202,1.437-0.301,2.145c-0.141,1.371-0.296,2.784-0.401,4.124
					c-0.08,0.932-0.138,1.821-0.2,2.717c0.317-1.042,0.98-3.068,1.055-3.231c0.773-1.692,2.688-4.124,4.799-5.463
					c0.113-0.25,0.247-0.49,0.405-0.716c1.243-1.775,3.746-2.327,5.456-0.851c2.374,2.049,1.781,7.673,0.689,10.251
					c-0.064,0.152-0.948,1.724-1.521,2.707c0.425-0.527,0.831-1.043,1.276-1.579c0.871-1.067,1.771-2.106,2.736-3.228
					c0.485-0.525,0.975-1.055,1.47-1.591c0.479-0.542,1.054-1.053,1.584-1.588c1.255-1.212,2.585-2.38,3.951-3.527
					c-0.932-0.765-4.205-3.529-5.146-5.408c-0.937-1.87-1.611-4.512-0.63-6.496c0.96-1.943,3.35-2.868,5.264-1.668
					c2.657,1.665,2.923,7.315,2.234,10.029c-0.043,0.169-0.756,2.061-1.167,3.093c0.827-0.683,1.648-1.369,2.507-2.032
					c2.479-1.916,5.047-3.779,7.601-5.648c0.783-0.572,1.555-1.152,2.332-1.729c-0.335-0.269-4.295-3.47-5.349-5.574
					c-0.937-1.869-1.611-4.512-0.63-6.496c0.96-1.943,3.35-2.868,5.264-1.668c2.657,1.666,2.923,7.315,2.234,10.029
					c-0.052,0.205-1.082,2.925-1.377,3.605c1.708-1.272,3.399-2.555,5.015-3.888c2.232-1.836,4.32-3.76,6.205-5.775
					c-0.156-0.125-4.305-3.447-5.385-5.602c-0.937-1.87-1.611-4.512-0.63-6.497c0.96-1.943,3.35-2.868,5.264-1.668
					c2.657,1.666,2.922,7.315,2.234,10.029c-0.045,0.178-0.828,2.254-1.223,3.231c0.083,0.052,0.068,0.043,0.151,0.095
					c1.994-2.182,3.65-4.547,5.091-6.837c0.837-1.325,1.564-2.638,2.241-3.931c-0.836-0.539-4.63-3.048-5.816-4.88
					c-1.136-1.755-2.096-4.308-1.34-6.388c0.741-2.037,3.015-3.219,5.049-2.236c2.824,1.364,3.708,6.949,3.322,9.723
					c-0.021,0.151-0.404,1.66-0.698,2.756c0.297-0.588,0.614-1.19,0.887-1.76c1.032-2.135,1.844-4.154,2.55-5.947
					c0.393-1.023,0.728-1.956,1.032-2.832c-0.544-0.958-2.689-4.844-2.894-6.977c-0.2-2.082,0.125-4.789,1.755-6.287
					c1.597-1.466,4.159-1.467,5.512,0.342c1.877,2.512,0.088,7.876-1.532,10.16c-0.14,0.197-2.685,3.032-2.714,2.982
					c0,0-0.027-0.046-0.033-0.058c-0.276,0.849-0.582,1.756-0.935,2.74c-0.668,1.813-1.439,3.855-2.428,6.021
					c-0.983,2.167-2.111,4.494-3.522,6.837c-1.41,2.351-3.014,4.752-4.986,7.012c-0.022,0.026-0.049,0.049-0.071,0.075
					c0.782-0.482,3.014-1.756,3.196-1.834c2.573-1.105,8.193-1.728,10.255,0.634c1.485,1.702,0.946,4.208-0.822,5.461
					c-1.806,1.28-4.521,1.028-6.515,0.396c-2.248-0.713-6.046-4.139-6.347-4.413c-1.898,2.135-4.019,4.172-6.279,6.115
					c-1.291,1.113-2.626,2.193-3.978,3.259c0.69-0.395,1.309-0.743,1.401-0.782c2.573-1.105,8.194-1.728,10.255,0.635
					c1.485,1.702,0.946,4.208-0.822,5.461c-1.806,1.28-4.522,1.028-6.515,0.396c-2.023-0.642-5.319-3.497-6.181-4.265
					c-0.523,0.404-1.04,0.812-1.565,1.214c-2.516,1.927-5.036,3.839-7.449,5.79c-0.851,0.687-1.664,1.395-2.48,2.101
					c0.613-0.35,1.132-0.64,1.216-0.676c2.573-1.105,8.194-1.728,10.255,0.634c1.485,1.702,0.946,4.208-0.823,5.461
					c-1.806,1.279-4.521,1.028-6.515,0.396c-1.93-0.612-4.996-3.221-6.025-4.128c-0.813,0.748-1.63,1.495-2.384,2.256
					c-0.503,0.532-1.025,1.008-1.501,1.57c-0.483,0.546-0.961,1.087-1.435,1.623c-0.874,1.065-1.783,2.159-2.609,3.219
					c-0.581,0.733-1.12,1.442-1.666,2.155c0.839-0.694,2.51-2.018,2.662-2.113c2.375-1.482,7.837-2.95,10.233-0.926
					c1.726,1.458,1.573,4.016,0.014,5.522c-1.592,1.539-4.313,1.701-6.38,1.379c-2.275-0.356-6.393-3.038-6.905-3.376
					c-0.899,1.183-1.762,2.342-2.559,3.449c-2.772,3.831-4.934,7.126-6.413,9.45c-0.053,0.083-0.099,0.157-0.15,0.237l-1.919-0.931
					c0.099-0.15,0.195-0.296,0.302-0.456c1.548-2.319,3.803-5.598,6.686-9.405c0.908-1.205,1.902-2.474,2.935-3.768
					c-0.266-0.291-1.769-1.955-2.977-3.686c-2.203,0.863-6.79,0.897-7.383,0.898c-0.097,1.483-0.177,2.925-0.231,4.288
					c-0.198,4.724-0.184,8.666-0.136,11.42c0.002,0.113,0.004,0.213,0.007,0.322l-2.109-1.023c0.021-2.737,0.104-6.439,0.383-10.815
					c0.092-1.506,0.221-3.113,0.369-4.762c-0.585-0.147-5.355-1.372-7.156-2.811c-1.634-1.305-3.353-3.422-3.294-5.635
					c0.058-2.167,1.841-4.008,4.081-3.72c3.11,0.399,5.718,5.418,6.23,8.17c0.03,0.162,0.161,1.961,0.225,3.097
					c0.064-0.673,0.119-1.328,0.193-2.021c0.138-1.37,0.316-2.734,0.502-4.202c0.115-0.705,0.23-1.418,0.348-2.138
					c0.101-0.716,0.298-1.46,0.445-2.198c0.378-1.703,0.843-3.411,1.35-5.122c-1.2-0.124-5.454-0.624-7.275-1.671
					c-1.813-1.043-3.833-2.875-4.109-5.071c-0.271-2.15,1.212-4.24,3.471-4.296c3.135-0.076,6.473,4.489,7.396,7.132
					c0.058,0.165,0.507,2.136,0.733,3.224c0.313-1.026,0.619-2.051,0.97-3.078c1.01-2.965,2.125-5.936,3.224-8.904
					c0.337-0.909,0.662-1.819,0.991-2.728c-0.427-0.039-5.497-0.525-7.536-1.698c-1.813-1.042-3.833-2.875-4.109-5.071
					c-0.271-2.15,1.212-4.241,3.471-4.295c3.135-0.076,6.473,4.489,7.396,7.132c0.069,0.199,0.712,3.036,0.84,3.766
					c0.723-2.003,1.426-4.006,2.038-6.009c0.849-2.762,1.528-5.52,1.99-8.239c-0.199-0.018-5.492-0.5-7.582-1.702
					c-1.813-1.043-3.833-2.875-4.109-5.071c-0.271-2.15,1.212-4.24,3.471-4.295c3.135-0.076,6.473,4.489,7.396,7.132
					c0.061,0.173,0.552,2.334,0.762,3.368c0.099-0.003,0.081-0.002,0.179-0.005c0.459-2.919,0.535-5.805,0.474-8.51
					c-0.032-1.567-0.151-3.063-0.299-4.515c-0.995,0.011-5.543,0.012-7.543-0.862c-1.916-0.837-4.125-2.436-4.642-4.589
					c-0.505-2.108,0.739-4.348,2.978-4.651c3.107-0.42,6.926,3.751,8.134,6.277c0.066,0.137,0.579,1.608,0.938,2.684
					c-0.077-0.654-0.144-1.331-0.23-1.957c-0.318-2.35-0.753-4.482-1.154-6.367c-0.237-1.07-0.472-2.033-0.702-2.932
					c-0.982-0.499-4.915-2.557-6.263-4.223c-1.315-1.626-2.538-4.063-2.004-6.212C364.603,204.738,366.74,203.323,368.867,204.086z"
					/>
				<path style="fill:#FFFFFF;" d="M425.551,252.419c-2.453-0.098-7.351-2.613-7.355-2.614c-0.051-0.026,2.637-2.725,2.826-2.876
					c2.19-1.745,7.446-3.83,10.059-2.096c1.882,1.25,2.024,3.809,0.649,5.484C430.326,252.028,427.641,252.502,425.551,252.419z"/>
			</g>
		</g>
		<g>
			<g>
				<path style="fill:#C6FF00;" d="M396.939,313.776c0,0-14.865-35.842-23.19-34.284c-8.325,1.558,14.271,57.14,14.271,57.14
					s-26.163-49.348-44.001-49.348s6.541,54.543,29.136,72.723c0,0-35.677-38.44-56.488-30.128
					c-20.812,8.311,41.623,47.27,41.623,47.27s-36.271-11.428-32.109-2.597c4.162,8.831,15.46,10.389,15.46,10.389l-41.028,2.078
					h142.708l-32.109-3.117c0,0,33.298-16.622,24.379-23.375c-8.919-6.753-28.542,7.792-28.542,7.792s33.893-37.401,27.352-51.426
					c-6.541-14.025-35.677,25.453-35.677,25.453s23.785-50.387,19.028-59.217C412.994,274.297,396.939,313.776,396.939,313.776z"/>
				<path style="opacity:0.4;fill:#FFFFFF;" d="M396.939,313.776c0,0-14.865-35.842-23.19-34.284
					c-8.325,1.558,14.271,57.14,14.271,57.14s-26.163-49.348-44.001-49.348s6.541,54.543,29.136,72.723
					c0,0-35.677-38.44-56.488-30.128c-20.812,8.311,41.623,47.27,41.623,47.27s-36.271-11.428-32.109-2.597
					c4.162,8.831,15.46,10.389,15.46,10.389l-41.028,2.078h142.708l-32.109-3.117c0,0,33.298-16.622,24.379-23.375
					c-8.919-6.753-28.542,7.792-28.542,7.792s33.893-37.401,27.352-51.426c-6.541-14.025-35.677,25.453-35.677,25.453
					s23.785-50.387,19.028-59.217C412.994,274.297,396.939,313.776,396.939,313.776z"/>
			</g>
			<g>
				<path style="fill:none;stroke:#263238;stroke-linecap:round;stroke-linejoin:round;stroke-miterlimit:10;" d="M401.696,315.665
					c-13.081,38.65-13.081,66.003-13.081,66.003s15.46,0.594,31.515-11.298"/>
				<path style="fill:none;stroke:#263238;stroke-linecap:round;stroke-linejoin:round;stroke-miterlimit:10;" d="M395.155,336.476
					c0,0-2.973-14.271-10.703-33.893"/>
				<path style="fill:none;stroke:#263238;stroke-linecap:round;stroke-linejoin:round;stroke-miterlimit:10;" d="M356.505,313.881
					l33.298,49.353c0,0,22.595-19.028,30.325-29.731"/>
				<path style="fill:none;stroke:#263238;stroke-linecap:round;stroke-linejoin:round;stroke-miterlimit:10;" d="M389.209,375.126
					c0,0-35.082-16.649-49.353-26.163"/>
			</g>
		</g>
	</g>
</g>
<g id="Device">
	<g>
		<path style="fill:#FFFFFF;stroke:#263238;stroke-linecap:round;stroke-linejoin:round;stroke-miterlimit:10;" d="M357.724,387.019
			H250.88c-4.372,0-7.917-3.544-7.917-7.917V116.917c0-4.372,3.544-7.917,7.917-7.917h106.843c4.372,0,7.917,3.544,7.917,7.917
			v262.185C365.64,383.474,362.096,387.019,357.724,387.019z"/>
		<g>
			<path style="fill:#263238;" d="M361.543,157.671c-0.902,0-1.633-0.731-1.633-1.633V134.19c0-0.902,0.732-1.633,1.633-1.633
				s1.633,0.731,1.633,1.633v21.847C363.176,156.939,362.445,157.671,361.543,157.671z"/>
		</g>
		<g>
			<path style="fill:#263238;" d="M361.543,177.911c-0.902,0-1.633-0.731-1.633-1.633v-12.209c0-0.902,0.732-1.633,1.633-1.633
				s1.633,0.731,1.633,1.633v12.209C363.176,177.18,362.445,177.911,361.543,177.911z"/>
		</g>
		<path style="fill:#263238;stroke:#263238;stroke-linecap:round;stroke-linejoin:round;stroke-miterlimit:10;" d="M348.469,387.019
			H241.625c-4.372,0-7.917-3.544-7.917-7.917V116.917c0-4.372,3.544-7.917,7.917-7.917h106.843c4.372,0,7.917,3.544,7.917,7.917
			v262.185C356.385,383.474,352.841,387.019,348.469,387.019z"/>
		<rect x="241.876" y="127.51" style="fill:#C6FF00;" width="106.341" height="238.457"/>
		
			<line style="fill:none;stroke:#FFFFFF;stroke-width:3;stroke-linecap:round;stroke-linejoin:round;stroke-miterlimit:10;" x1="279.258" y1="119.888" x2="307.569" y2="119.888"/>
		<path style="fill:#FFFFFF;" d="M291.236,374.406c0,1.954-1.219,3.539-2.722,3.539c-1.503,0-2.722-1.584-2.722-3.539
			c0-1.954,1.219-3.539,2.722-3.539C290.017,370.867,291.236,372.452,291.236,374.406z"/>
		<g>
			<ellipse style="fill:#FFFFFF;" cx="295.047" cy="165.348" rx="18.442" ry="21.505"/>
			
				<ellipse style="fill:#263238;stroke:#263238;stroke-linecap:round;stroke-linejoin:round;stroke-miterlimit:10;" cx="295.047" cy="156.909" rx="7.003" ry="8.166"/>
			<path style="fill:#263238;stroke:#263238;stroke-linecap:round;stroke-linejoin:round;stroke-miterlimit:10;" d="
				M295.047,167.253c-7.027,0-12.723,5.362-12.723,11.977c0,0.625,0.066,1.235,0.165,1.835c3.294,3.58,7.7,5.787,12.558,5.787
				c4.858,0,9.264-2.207,12.558-5.787c0.098-0.6,0.165-1.209,0.165-1.835C307.77,172.616,302.073,167.253,295.047,167.253z"/>
		</g>
		<g>
			<g>
				<path style="fill:#263238;" d="M317.469,258.98h-44.843c-2.371,0-4.294-2.082-4.294-4.65v-27.657
					c0-15.954,11.984-28.932,26.715-28.932c14.731,0,26.715,12.979,26.715,28.932v27.657
					C321.762,256.898,319.84,258.98,317.469,258.98z M276.919,249.68h36.256v-23.007c0-10.825-8.132-19.633-18.128-19.633
					c-9.996,0-18.128,8.807-18.128,19.633V249.68z"/>
			</g>
			<rect x="263.919" y="240.106" style="fill:#FFFFFF;" width="62.256" height="58.898"/>
			<path style="fill:#263238;stroke:#263238;stroke-linecap:round;stroke-linejoin:round;stroke-miterlimit:10;" d="
				M304.119,280.664l-4.617-11.109c1.958-1.441,3.244-3.871,3.244-6.628c0-4.423-3.311-8.008-7.394-8.008s-7.394,3.585-7.394,8.008
				c0,2.757,1.287,5.187,3.244,6.628l-4.617,11.109H304.119z"/>
		</g>
		<g>
			<path style="fill:#FFFFFF;" d="M276.083,351.941c0.097,0.071,0.209,0.105,0.322,0.105c0.167,0,0.332-0.077,0.439-0.222
				l71.373-97.093v-1.839l-72.251,98.288C275.789,351.422,275.841,351.763,276.083,351.941z"/>
			<path style="fill:#FFFFFF;" d="M333.86,162.486c-0.178,0.242-0.125,0.583,0.117,0.761c0.097,0.071,0.21,0.106,0.322,0.106
				c0.167,0,0.332-0.077,0.439-0.222l13.479-18.335v-1.84L333.86,162.486z"/>
			<path style="fill:#FFFFFF;" d="M241.876,289.458l88.085-119.827c0.178-0.243,0.125-0.583-0.117-0.761
				c-0.239-0.176-0.581-0.127-0.761,0.116l-87.207,118.633V289.458z"/>
			<path style="fill:#FFFFFF;" d="M267.796,363.759c0.167,0,0.332-0.077,0.439-0.222l4.964-6.752
				c0.177-0.242,0.125-0.583-0.117-0.761c-0.239-0.177-0.581-0.126-0.761,0.117l-4.964,6.752c-0.177,0.242-0.125,0.583,0.117,0.761
				C267.57,363.725,267.683,363.759,267.796,363.759z"/>
			<path style="fill:#FFFFFF;" d="M348.217,274.169l-58.593,79.707c-0.178,0.243-0.126,0.583,0.117,0.761
				c0.097,0.071,0.21,0.105,0.322,0.105c0.167,0,0.332-0.077,0.439-0.222l57.715-78.512V274.169z"/>
		</g>
	</g>
</g>
<g id="Character">
	<g>
		<g>
			<path style="fill:#263238;stroke:#263238;stroke-linecap:round;stroke-linejoin:round;stroke-miterlimit:10;" d="
				M142.412,162.143c0,0,1.399-2.579,1.399-7.053c0-4.474-5.415-7.064-11.773-7.77c-6.357-0.706-9.183,1.884-8.241,3.532
				c0.942,1.648,3.532,3.532,3.532,3.532s-6.357-3.532-10.596-0.706c-4.238,2.826,1.884,1.648,0.706,4.474s-7.77,1.648-9.418,9.183
				c-1.648,7.535,3.061,15.069-1.177,18.366c-4.238,3.296-16.953-1.177-20.72,7.064c-3.767,8.241,1.56,11.893-7.388,17.073
				s-15.452,10.24-12.862,22.955c2.59,12.715,11.067,17.188,27.784,12.715c16.717-4.474,15.54-14.598,20.956-24.959
				c5.416-10.36,13.892-8.241,16.482-14.128c2.59-5.886-0.706-12.95-0.471-18.366c0.235-5.415,5.651-6.593,7.77-12.95
				C140.515,168.747,142.412,162.143,142.412,162.143z"/>
			<path style="fill:none;stroke:#FFFFFF;stroke-width:0.5;stroke-linecap:round;stroke-linejoin:round;stroke-miterlimit:10;" d="
				M67.821,232.604c-0.42,0.84-0.647,1.78-0.647,2.85"/>
			<path style="fill:none;stroke:#FFFFFF;stroke-width:0.5;stroke-linecap:round;stroke-linejoin:round;stroke-miterlimit:10;" d="
				M133.373,157.467c0,0-2.947-3.4,2.721-1.814c7.129,1.996-1.242,10.243-4.468,11.902c-6.456,3.319-15.004,2.259-20.017,8.275
				c-4.534,5.441,1.587,11.109-1.134,15.416c-2.72,4.307-13.602,1.814-17.23,7.028c-3.627,5.214,6.575,16.323-3.854,22.444
				c-7.543,4.427-15.797,6.127-19.788,9.645"/>
			<path style="fill:none;stroke:#FFFFFF;stroke-width:0.5;stroke-linecap:round;stroke-linejoin:round;stroke-miterlimit:10;" d="
				M116.458,177.593c-0.549,1.487-0.884,3.133-0.542,4.585c0.907,3.854,6.121,11.109,1.36,15.189
				c-4.761,4.081-12.922,3.854-14.283,8.615c-1.36,4.761,1.36,17.91-3.174,24.031c-4.534,6.121-13.376,5.668-18.137,9.748
				c-4.761,4.081-4.081,6.348-4.081,6.348"/>
			<path style="fill:none;stroke:#FFFFFF;stroke-width:0.5;stroke-linecap:round;stroke-linejoin:round;stroke-miterlimit:10;" d="
				M118.863,173.11c0,0-0.527,0.713-1.146,1.807"/>
		</g>
		<path style="fill:#FFFFFF;stroke:#263238;stroke-linecap:round;stroke-linejoin:round;stroke-miterlimit:10;" d="M145.459,232.239
			l1.156,9.015c0,0,6.01,6.01,10.402,9.708c4.392,3.698,15.718,11.557,15.718,11.557l-5.779,1.618c0,0-18.723-11.095-22.421-12.02
			c-3.698-0.925-6.472-6.241-7.628-7.859C135.751,242.641,142.454,230.621,145.459,232.239z"/>
		<g>
			<path style="fill:#FFFFFF;stroke:#263238;stroke-linecap:round;stroke-linejoin:round;stroke-miterlimit:10;" d="
				M156.903,378.667c0,0,5.655,4.785,7.975,6.38c2.32,1.595,5.075,2.32,4.64,3.19c-0.435,0.87-1.595,1.74-7.105,1.015
				c-5.51-0.725-7.105-2.61-8.12-2.9c-1.015-0.29-3.48,0.435-5.365-0.725c-1.885-1.16,1.105-8.069,1.105-8.069
				S152.843,380.987,156.903,378.667z"/>
			<path style="fill:#FFFFFF;stroke:#263238;stroke-linecap:round;stroke-linejoin:round;stroke-miterlimit:10;" d="
				M169.518,388.237c0.023-0.045,0.032-0.09,0.037-0.134c-3.353,0.454-6.544-0.21-9.453-0.895c-3.566-0.839-4.615-2.727-7.971-2.727
				c-1.696,0-3.014-0.321-3.906-0.639c0.019,0.814,0.209,1.481,0.704,1.786c1.885,1.16,4.35,0.435,5.365,0.725
				c1.015,0.29,2.61,2.175,8.12,2.9C167.923,389.977,169.083,389.107,169.518,388.237z"/>
		</g>
		<g>
			<path style="fill:#FFFFFF;stroke:#263238;stroke-linecap:round;stroke-linejoin:round;stroke-miterlimit:10;" d="
				M127.271,185.401c0,0,1.093,7.336-0.312,10.302c-1.405,2.966-5.776,3.278-9.522,3.902c-3.746,0.624-12.331,3.902-11.395,12.331
				c0.937,8.429,11.707,26.692,11.707,31.843c0,5.151-3.278,7.805-6.868,17.795c-3.59,9.99-3.122,28.565-2.029,40.584
				c1.093,12.019,4.683,23.414,4.683,23.414s-9.053,14.517-12.956,20.76c-3.902,6.244-17.951,33.404-17.951,33.404
				s0,0.937,2.185,1.561c2.185,0.624,4.683,0.312,4.683,0.312s26.848-32.311,31.843-37.774c4.995-5.463,9.678-14.985,10.302-19.355
				c0.624-4.371-0.156-31.063-0.156-31.063s5.619,13.424,9.99,20.292s7.326,12.956,7.326,12.956s-1.082,9.209,0.011,17.014
				c1.093,7.805,0.17,32.862,1.263,34.891c1.093,2.029,5.315,1.183,6.252,0.246c0.936-0.937,1.383-7.04,1.383-7.04
				s1.873-19.043,2.966-27.941c1.093-8.897,2.966-16.546,2.341-18.575c-0.624-2.029-4.527-23.726-7.492-34.028
				c-2.966-10.302-12.019-29.502-14.048-34.497c-2.029-4.995-3.122-9.522-2.81-11.083c0.312-1.561,6.4-10.926,7.961-13.424
				c1.561-2.497,2.185-7.024,0.312-11.083c-1.873-4.058,0-9.522-0.312-12.8c-0.312-3.278-5.151-4.683-7.649-5.932
				c-2.497-1.249-3.434-4.058-3.434-6.4s1.405-5.619,1.405-5.619S129.3,185.401,127.271,185.401z"/>
			<path style="fill:none;stroke:#263238;stroke-linecap:round;stroke-linejoin:round;stroke-miterlimit:10;" d="M146.186,218.786
				c0,0-1.773-4.636-2.045-6.408"/>
			<path style="fill:none;stroke:#263238;stroke-linecap:round;stroke-linejoin:round;stroke-miterlimit:10;" d="M125.916,236.167
				c0,0,2.825,0.628,8.476-2.198"/>
		</g>
		<path style="fill:#263238;stroke:#263238;stroke-linecap:round;stroke-linejoin:round;stroke-miterlimit:10;" d="M155.524,291.232
			c-2.835-9.846-11.225-27.81-13.734-33.743c-12.029,4.505-23.222,0.656-28.488-1.819c-0.765,1.656-1.583,3.575-2.421,5.904
			c-3.59,9.99-3.122,28.565-2.029,40.584c1.093,12.019,4.683,23.414,4.683,23.414s-9.053,14.517-12.956,20.76
			c-3.902,6.244-17.951,33.404-17.951,33.404s0,0.937,2.185,1.561c2.185,0.624,4.683,0.312,4.683,0.312s26.848-32.311,31.843-37.774
			c4.995-5.463,9.678-14.985,10.302-19.355c0.624-4.371-0.156-31.063-0.156-31.063s5.619,13.424,9.99,20.292
			c4.371,6.868,7.326,12.956,7.326,12.956s-1.082,9.209,0.011,17.014c1.093,7.805,0.17,32.862,1.263,34.891
			c1.093,2.029,5.315,1.183,6.252,0.246c0.936-0.937,1.383-7.04,1.383-7.04s1.873-19.043,2.966-27.941
			c1.093-8.897,2.966-16.546,2.341-18.575C162.392,323.231,158.49,301.534,155.524,291.232z"/>
		<g>
			<polygon style="fill:#C6FF00;stroke:#263238;stroke-linecap:round;stroke-linejoin:round;stroke-miterlimit:10;" points="
				216.656,281.318 216.656,279.276 218.372,279.276 218.372,263.26 216.656,263.26 199.782,263.26 198.066,263.26 198.066,279.276 
				199.782,279.276 199.782,281.318 198.063,281.318 198.063,285.036 204.652,285.036 204.652,283.787 211.786,283.787 
				211.786,285.036 218.375,285.036 218.375,281.318 			"/>
			<path style="fill:#C6FF00;stroke:#263238;stroke-linecap:round;stroke-linejoin:round;stroke-miterlimit:10;" d="
				M225.317,265.619H107.556v-7.15h117.761c0.985,0,1.784,0.799,1.784,1.784v3.582C227.101,264.821,226.303,265.619,225.317,265.619
				z"/>
			<path style="fill:#C6FF00;stroke:#263238;stroke-linecap:round;stroke-linejoin:round;stroke-miterlimit:10;" d="
				M192.087,266.692h-7.177c-0.545,0-0.987-0.442-0.987-0.987v-7.32c0-0.545,0.442-0.987,0.987-0.987h7.177
				c0.545,0,0.987,0.442,0.987,0.987v7.32C193.075,266.25,192.633,266.692,192.087,266.692z"/>
			
				<ellipse transform="matrix(0.1616 -0.9869 0.9869 0.1616 -180.7131 311.3802)" style="fill:#C6FF00;stroke:#263238;stroke-linecap:round;stroke-linejoin:round;stroke-miterlimit:10;" cx="92.899" cy="262.044" rx="18.59" ry="18.59"/>
			<path style="fill:#FFFFFF;stroke:#263238;stroke-linecap:round;stroke-linejoin:round;stroke-miterlimit:10;" d="M96.72,262.044
				c2.204-1.152,3.686-3.263,3.686-5.685c0-3.652-3.361-6.613-7.507-6.613c-4.146,0-7.507,2.961-7.507,6.613
				c0,2.421,1.482,4.533,3.686,5.685c-2.204,1.152-3.686,3.263-3.686,5.685c0,3.652,3.361,6.613,7.507,6.613
				c4.146,0,7.507-2.961,7.507-6.613C100.406,265.308,98.924,263.197,96.72,262.044z"/>
		</g>
		<g>
			<path style="fill:#FFFFFF;stroke:#263238;stroke-linecap:round;stroke-linejoin:round;stroke-miterlimit:10;" d="
				M169.065,265.772c0,0,5.811,2.453,7.619,2.453c1.808,0,3.874-1.808,4.907-4.003c1.033-2.195,1.033-3.228,0.387-2.712
				c-0.646,0.516-1.291,1.033-1.291,1.033s1.033-2.195-0.129-1.937c-1.162,0.258-1.808,1.55-1.808,1.55s-0.129-1.937-1.162-1.033
				c-1.033,0.904-1.808,2.066-1.808,2.066s-0.129-2.453-0.775-1.808c-0.646,0.646-3.099,4.132-3.099,4.132L169.065,265.772z"/>
			<path style="fill:#FFFFFF;stroke:#263238;stroke-linecap:round;stroke-linejoin:round;stroke-miterlimit:10;" d="M175.779,263.19
				c0,0-0.387,3.099-2.324,3.616"/>
			<path style="fill:#FFFFFF;stroke:#263238;stroke-linecap:round;stroke-linejoin:round;stroke-miterlimit:10;" d="
				M178.749,262.157c0,0-1.033,4.907-2.583,5.682"/>
			<path style="fill:#FFFFFF;stroke:#263238;stroke-linecap:round;stroke-linejoin:round;stroke-miterlimit:10;" d="
				M180.686,262.544c0,0-1.162,3.874-2.066,5.165"/>
		</g>
		<path style="fill:#FFFFFF;stroke:#263238;stroke-linecap:round;stroke-linejoin:round;stroke-miterlimit:10;" d="M138.656,202.215
			c-2.244-1.325-3.112-3.967-3.112-6.2c0-2.341,1.405-5.619,1.405-5.619s-7.648-4.995-9.678-4.995c0,0,1.093,7.336-0.312,10.302
			c-0.446,0.943-1.194,1.616-2.125,2.117c1.024,3.471,5.179,11.222,7.445,14.012C135.135,215.347,136.51,207.913,138.656,202.215z"
			/>
		<g>
			<path style="fill:#FFFFFF;stroke:#263238;stroke-linecap:round;stroke-linejoin:round;stroke-miterlimit:10;" d="
				M115.054,200.617c0,0-5.938,0.66-9.016,6.598c-3.079,5.938-16.533,32.896-15.386,34.509c6.539,9.199,30.331,15.817,32.75,18.236
				c2.419,2.419,5.507,5.313,7.926,6.852s7.257,0.88,8.137,0.44c0.88-0.44,1.539-2.419,0-2.419s-2.328-1.112-2.548-1.991
				c-0.22-0.88,2.419,0.88,3.739,0.22c1.319-0.66-2.95-3.067-4.27-4.166c-1.32-1.099-2.419-2.639-4.178-2.639
				c-1.759,0-5.064-0.038-5.064-0.038s-8.103-5.872-12.998-10.241c-6.595-5.886-12.407-9.059-12.407-9.059l14.854-24.426"/>
			<path style="fill:#FFFFFF;stroke:#263238;stroke-linecap:round;stroke-linejoin:round;stroke-miterlimit:10;" d="
				M136.386,258.894c-1.32-1.099-2.419-2.639-4.178-2.639c-1.759,0-5.064-0.038-5.064-0.038s-8.103-5.872-12.998-10.241
				c-6.595-5.886-12.407-9.059-12.407-9.059l5.945-9.775c-3.9-2.443-7.999-2.843-10.066-2.869
				c-3.957,8.339-7.584,16.579-6.966,17.449c6.539,9.199,30.331,15.817,32.75,18.236c2.419,2.419,5.507,5.313,7.926,6.852
				c2.419,1.539,7.257,0.88,8.137,0.44c0.88-0.44,1.539-2.419,0-2.419s-2.328-1.112-2.548-1.991c-0.22-0.88,2.419,0.88,3.739,0.22
				C141.975,262.401,137.705,259.994,136.386,258.894z"/>
		</g>
		<g>
			<path style="fill:#FFFFFF;stroke:#263238;stroke-linecap:round;stroke-linejoin:round;stroke-miterlimit:10;" d="
				M144.441,174.631c-0.781-1.561-0.781-2.81-0.468-4.995c0.312-2.185-1.561-7.492-1.561-7.492s-0.017,0.013-0.029,0.022
				c-1.909,3.309-7.43,5.267-9.878,6.02c-2.689,0.827,1.241,2.689,0.827,5.171c-0.414,2.482-5.792,3.93-5.792,3.93
				s-1.538-3.31-3.723-3.31c-2.185,0-3.731,5-2.482,7.654c1.249,2.654,3.907,2.053,3.907,2.053s-0.156,4.683,2.81,6.088
				c2.966,1.405,7.961,3.278,9.834,3.59c1.873,0.312,3.746-0.624,4.527-3.434c0.78-2.81,1.249-8.585,1.249-8.585
				s2.81-1.873,3.59-2.966C148.031,177.284,145.222,176.192,144.441,174.631z"/>
			<path style="fill:#263238;" d="M141.4,174.701c0,0.857-0.278,1.551-0.621,1.551c-0.343,0-0.621-0.695-0.621-1.551
				c0-0.857,0.278-1.551,0.621-1.551C141.122,173.15,141.4,173.844,141.4,174.701z"/>
			<path style="fill:none;stroke:#263238;stroke-linecap:round;stroke-linejoin:round;stroke-miterlimit:10;" d="M138.711,172.116
				c0,0,1.655-1.862,2.896-1.448"/>
			<path style="fill:none;stroke:#263238;stroke-linecap:round;stroke-linejoin:round;stroke-miterlimit:10;" d="M141.607,184.941
				c0,0-2.275,0.827-4.344-1.034"/>
		</g>
		<g>
			<path style="fill:#FFFFFF;stroke:#263238;stroke-linecap:round;stroke-linejoin:round;stroke-miterlimit:10;" d="M82.628,379.737
				c0,0-3.733,7.485-3.588,8.5c0.145,1.015,7.54,6.38,11.02,8.265c3.48,1.885,9.715,2.175,9.28-0.435
				c-0.435-2.61-6.38-4.35-7.83-8.265c-1.45-3.915-2.014-6.192-2.014-6.192S85.926,381.822,82.628,379.737z"/>
			<path style="fill:#FFFFFF;stroke:#263238;stroke-linecap:round;stroke-linejoin:round;stroke-miterlimit:10;" d="M99.341,396.106
				c-1.987,0.275-4.729,0.207-7.832-1.137c-5.37-2.327-10.573-7.086-11.988-8.435c-0.317,0.817-0.515,1.455-0.479,1.703
				c0.145,1.015,7.54,6.38,11.02,8.265C93.521,398.376,99.701,398.671,99.341,396.106z"/>
		</g>
	</g>
</g>
</svg>
